HIERARCHY
ROOT root
{
	OFFSET 0.000000 0.000000 0.000000
	CHANNELS 6 Xposition Yposition Zposition Zrotation Yrotation Xrotation
	JOINT lhip
	{
		OFFSET 0.058581 -0.082280 -0.017664
		CHANNELS 3 Zrotation Yrotation Xrotation
		JOINT lknee
		{
			OFFSET 0.043451 -0.386469 0.008037
			CHANNELS 3 Zrotation Yrotation Xrotation
			JOINT lankle
			{
				OFFSET -0.014790 -0.426874 -0.037428
				CHANNELS 3 Zrotation Yrotation Xrotation
				JOINT ltoe
				{
					OFFSET 0.041054 -0.060286 0.122042
					CHANNELS 3 Zrotation Yrotation Xrotation
					End Site
					{
						OFFSET 0.000000 0.000000 0.000000
					}
				}
			}
		}
	}
	JOINT rhip
	{
		OFFSET -0.060310 -0.090513 -0.013543
		CHANNELS 3 Zrotation Yrotation Xrotation
		JOINT rknee
		{
			OFFSET -0.043257 -0.383688 -0.004843
			CHANNELS 3 Zrotation Yrotation Xrotation
			JOINT rankle
			{
				OFFSET 0.019056 -0.420046 -0.034562
				CHANNELS 3 Zrotation Yrotation Xrotation
				JOINT rtoe
				{
					OFFSET -0.034840 -0.062106 0.130323
					CHANNELS 3 Zrotation Yrotation Xrotation
					End Site
					{
						OFFSET 0.000000 0.000000 0.000000
					}
				}
			}
		}
	}
	JOINT lowerback
	{
		OFFSET 0.004439 0.124404 -0.038385
		CHANNELS 3 Zrotation Yrotation Xrotation
		JOINT upperback
		{
			OFFSET 0.004488 0.137956 0.026820
			CHANNELS 3 Zrotation Yrotation Xrotation
			JOINT chest
			{
				OFFSET -0.002265 0.056032 0.002855
				CHANNELS 3 Zrotation Yrotation Xrotation
				JOINT lowerneck
				{
					OFFSET -0.013390 0.211636 -0.033468
					CHANNELS 3 Zrotation Yrotation Xrotation
					JOINT upperneck
					{
						OFFSET 0.010113 0.088937 0.050410
						CHANNELS 3 Zrotation Yrotation Xrotation
						End Site
						{
							OFFSET 0.000000 0.000000 0.000000
						}
					}
				}
				JOINT lclavicle
				{
					OFFSET 0.071702 0.114000 -0.018898
					CHANNELS 3 Zrotation Yrotation Xrotation
					JOINT lshoulder
					{
						OFFSET 0.122921 0.045205 -0.019046
						CHANNELS 3 Zrotation Yrotation Xrotation
						JOINT lelbow
						{
							OFFSET 0.255332 -0.015649 -0.022946
							CHANNELS 3 Zrotation Yrotation Xrotation
							JOINT lwrist
							{
								OFFSET 0.265709 0.012698 -0.007375
								CHANNELS 3 Zrotation Yrotation Xrotation
								End Site
								{
									OFFSET 0.000000 0.000000 0.000000
								}
							}
						}
					}
				}
				JOINT rclavicle
				{
					OFFSET -0.082954 0.112472 -0.023707
					CHANNELS 3 Zrotation Yrotation Xrotation
					JOINT rshoulder
					{
						OFFSET -0.113228 0.046853 -0.008472
						CHANNELS 3 Zrotation Yrotation Xrotation
						JOINT relbow
						{
							OFFSET -0.260127 -0.014369 -0.031269
							CHANNELS 3 Zrotation Yrotation Xrotation
							JOINT rwrist
							{
								OFFSET -0.269108 0.006794 -0.006027
								CHANNELS 3 Zrotation Yrotation Xrotation
								End Site
								{
									OFFSET 0.000000 0.000000 0.000000
								}
							}
						}
					}
				}
			}
		}
	}
}
MOTION
Frames: 13
Frame Time: 0.033333
1.972820 -0.099016 0.988343 -8.335348 0.301638 92.982631 4.885945 -0.204394 -4.217986 -8.811350 -10.284822 1.482327 3.782981 8.241856 -10.950081 0.000000 -0.000000 0.000000 -7.054409 -2.105701 -8.725181 9.021018 0.442792 12.916455 1.231827 -1.646680 -9.298897 0.000000 -0.000000 0.000000 -1.722457 2.609550 -2.732491 1.443316 -1.913872 4.808528 -1.337429 0.642148 -6.440670 2.379970 -9.589234 0.261276 5.096364 -7.762245 -0.570006 -26.487480 -0.371383 2.909935 -64.121206 -6.392746 16.454497 11.330767 -19.041074 -11.915214 -15.189496 -10.745163 3.291283 25.142304 5.719659 4.899079 61.104818 5.855856 12.296390 -4.070495 21.813982 8.258069 17.023274 4.202769 12.589669 
1.972979 -0.098635 0.988364 -8.325128 0.315438 92.962465 4.939948 -0.225448 -4.260188 -8.883033 -10.266685 1.555643 3.838895 8.209346 -10.948990 0.000000 -0.000000 0.000000 -7.068047 -2.143113 -8.718299 9.051829 0.458149 12.946851 1.283171 -1.634026 -9.309328 0.000000 -0.000000 0.000000 -1.779161 2.586248 -2.852693 1.527452 -1.940621 4.900207 -1.270193 0.688514 -6.473276 2.296399 -9.895160 0.422780 4.851923 -8.000335 -0.418017 -25.716732 -0.634041 3.050868 -65.293165 -6.472541 16.759015 11.375733 -18.707100 -10.796853 -13.921328 -9.580671 4.660070 24.667364 5.916308 5.171334 61.427696 6.136688 12.458416 -3.978254 21.660666 8.779908 16.560074 4.322218 12.483534 
1.973110 -0.098190 0.988545 -8.300621 0.345024 92.982891 5.013453 -0.251258 -4.347704 -8.951888 -10.241329 1.615025 3.876806 8.178024 -10.911170 0.000000 -0.000000 0.000000 -7.048251 -2.110195 -8.748981 9.054936 0.431578 12.959608 1.340439 -1.659317 -9.295139 0.000000 -0.000000 0.000000 -1.832177 2.569875 -2.990168 1.610030 -1.939361 4.959348 -1.185440 0.724346 -6.496087 2.269539 -10.155772 0.659717 4.693425 -8.305221 -0.402954 -24.761303 -0.973035 3.196647 -66.590469 -6.548213 17.075543 11.376751 -18.449457 -9.910242 -12.778992 -8.750921 5.490061 23.965707 6.206633 5.369603 61.912904 6.330700 12.686253 -3.873877 21.416937 9.380578 16.135084 4.483535 12.099185 
1.973280 -0.097541 0.988862 -8.258422 0.348127 93.015180 5.032998 -0.317708 -4.484120 -8.980551 -10.160327 1.704211 3.905083 8.131968 -10.876096 0.000000 -0.000000 0.000000 -7.043709 -2.044003 -8.837742 9.021101 0.311601 13.039029 1.419768 -1.666238 -9.324753 0.000000 -0.000000 0.000000 -1.890691 2.539607 -3.095530 1.683714 -1.947106 4.988723 -1.128925 0.775577 -6.520550 2.204815 -10.370209 1.106452 4.819280 -8.687352 -0.753001 -23.626866 -1.188960 3.379739 -67.901356 -6.706078 17.378744 11.331903 -18.386888 -8.872241 -12.176598 -8.128162 6.119223 23.175403 6.411310 5.584878 62.639406 6.606232 12.907731 -4.008650 21.139219 9.949102 15.904973 4.651240 11.627164 
1.973466 -0.096816 0.989164 -8.232958 0.349334 93.040091 5.038495 -0.404191 -4.610322 -8.964727 -10.029707 1.778505 3.892295 8.072268 -10.827521 0.000000 -0.000000 0.000000 -7.040317 -1.942760 -8.932860 8.961684 0.114612 13.131770 1.533287 -1.615000 -9.364385 0.000000 -0.000000 0.000000 -1.954957 2.511056 -3.252426 1.766657 -1.959192 5.031054 -1.053303 0.850415 -6.442880 2.019288 -10.494481 1.940668 5.343266 -9.167320 -1.819742 -22.132617 -1.499941 3.748126 -69.518058 -7.005825 17.589467 11.239874 -18.447835 -7.850914 -11.530129 -7.768014 6.270792 22.019189 6.725598 6.013208 63.733885 7.021195 12.944988 -4.178562 20.989562 10.523073 15.507323 4.964483 10.795546 
1.973593 -0.096154 0.989503 -8.229704 0.351353 93.091909 5.044301 -0.493894 -4.745157 -8.911774 -9.842384 1.834811 3.846276 7.949702 -10.771823 0.000000 -0.000000 0.000000 -7.043265 -1.804569 -9.040799 8.888793 -0.193597 13.226099 1.685653 -1.455833 -9.399926 0.000000 -0.000000 0.000000 -1.935245 2.450729 -3.584033 1.816529 -1.981456 5.267301 -0.982465 0.944277 -6.323278 1.617482 -10.454292 3.256743 6.256918 -9.682873 -3.941766 -20.245730 -2.018956 4.303827 -71.337060 -7.410045 17.610032 11.044160 -18.846222 -7.255881 -11.427232 -7.815781 5.733917 20.392314 7.335529 6.899453 65.429151 7.711499 12.719192 -4.607823 21.021869 11.001936 15.152995 5.375464 9.836656 
1.973643 -0.095567 0.989921 -8.250925 0.378783 93.187801 5.089476 -0.582634 -4.897853 -8.862417 -9.575971 1.874853 3.751748 7.759634 -10.703227 0.000000 -0.000000 0.000000 -7.016999 -1.586876 -9.185023 8.772671 -0.629515 13.330100 1.924914 -1.212443 -9.443406 0.000000 -0.000000 0.000000 -1.854047 2.356259 -4.119794 1.859314 -2.047256 5.787789 -0.916123 0.973652 -6.093106 1.082970 -10.167371 4.963345 7.613341 -10.178626 -7.556286 -17.722420 -2.584256 4.634551 -73.553249 -7.640142 17.741455 10.675180 -19.688811 -6.017115 -11.452758 -7.805435 5.059282 18.200083 8.192640 8.039548 67.633844 8.722337 12.693204 -4.958884 21.327512 11.959733 14.642299 5.980993 8.403435 
1.973579 -0.095063 0.990449 -8.329732 0.436069 93.265427 5.159673 -0.665700 -5.016676 -8.795160 -9.296219 1.939372 3.594541 7.596153 -10.663746 0.000000 -0.000000 0.000000 -6.952787 -1.302340 -9.329766 8.645300 -1.109124 13.458282 2.157464 -0.921422 -9.465673 0.000000 -0.000000 0.000000 -1.859939 2.321014 -4.800320 1.924405 -2.131902 6.520045 -0.794753 1.064598 -5.769460 0.791157 -9.661215 6.742597 8.895395 -10.506107 -11.786497 -15.050623 -3.546221 4.918607 -75.636493 -7.752350 17.934718 10.275682 -20.907202 -4.638983 -11.828581 -7.859471 4.362613 16.037576 9.364179 8.855962 69.490044 9.339738 12.798056 -4.868977 22.104152 13.326639 14.440989 6.562365 6.893839 
1.973635 -0.094510 0.990939 -8.449217 0.431060 93.328146 5.103920 -0.835645 -5.113696 -8.642546 -8.955695 2.020373 3.418958 7.463150 -10.665085 0.000000 -0.000000 0.000000 -6.972649 -0.992552 -9.511137 8.508745 -1.624969 13.664732 2.367886 -0.549630 -9.512371 0.000000 -0.000000 0.000000 -1.977058 2.334626 -5.560097 1.961963 -2.253697 7.347653 -0.708725 1.329419 -5.469973 0.368330 -9.239656 8.762846 10.509896 -10.793699 -16.013586 -12.226534 -4.956808 5.468379 -77.712764 -8.213455 17.875857 10.139571 -21.933410 -4.303967 -13.624011 -8.926192 2.096112 14.071760 10.706562 9.721525 71.145111 9.882557 12.616295 -4.692213 23.064662 14.666212 14.721878 7.072233 5.885644 
1.973838 -0.093920 0.991362 -8.520679 0.392399 93.373038 5.000771 -1.035003 -5.161530 -8.492482 -8.722394 2.066258 3.317344 7.416659 -10.646692 0.000000 -0.000000 0.000000 -7.047543 -0.789356 -9.651224 8.405778 -2.065988 13.860641 2.619447 -0.216292 -9.616726 0.000000 -0.000000 0.000000 -2.117250 2.302068 -6.434602 2.033176 -2.470256 8.452559 -0.586488 1.466845 -5.269695 -0.378293 -8.730923 11.069194 12.311898 -10.797202 -20.527031 -8.985580 -6.532320 6.271943 -80.244219 -8.625206 17.821951 9.889643 -23.006793 -2.096027 -13.433123 -8.743782 1.828527 11.546529 12.281225 10.877196 73.115639 10.971725 12.494986 -4.354457 23.709475 16.639237 13.989786 7.828399 4.537376 
1.973975 -0.093395 0.991850 -8.629746 0.402249 93.356198 4.971306 -1.182425 -5.079175 -8.358260 -8.624188 1.988779 3.200608 7.493664 -10.531890 0.000000 -0.000000 0.000000 -7.031287 -0.611391 -9.687303 8.298668 -2.381190 13.974913 2.722619 0.050079 -9.698467 0.000000 -0.000000 0.000000 -2.327946 2.406578 -7.557726 2.184169 -2.602419 10.142864 -0.292149 1.458697 -5.347744 -1.002487 -8.072370 13.202948 13.437659 -10.587069 -24.487960 -5.969815 -8.694495 7.091658 -82.735493 -9.014449 17.647581 9.812788 -24.012914 -0.668939 -12.588666 -8.276259 1.724303 8.807712 14.208396 11.653558 74.999875 11.713524 12.378498 -4.244587 24.291379 18.367692 13.097888 8.469054 2.973373 
1.973140 -0.091971 0.992304 -8.780404 0.590500 93.447956 5.315566 -1.198848 -5.256529 -8.422923 -8.403570 2.148259 3.040453 7.409788 -10.522299 0.000000 -0.000000 0.000000 -6.686350 -0.132562 -9.930940 8.073665 -2.717148 14.165225 2.807530 0.087114 -9.718367 0.000000 -0.000000 0.000000 -2.467144 2.396459 -8.196658 2.373739 -2.706494 10.809419 0.057935 1.501941 -5.331733 -1.510104 -7.237688 15.216731 14.159243 -10.284011 -27.360185 -3.392394 -10.545395 7.686225 -84.782570 -9.221817 17.282516 9.883556 -24.566780 -0.082367 -13.262600 -8.844413 0.298444 6.322590 15.973989 12.296065 76.721989 12.304982 12.194276 -4.230777 24.715389 19.706213 12.930082 9.041606 1.344562 
1.973498 -0.090900 0.992820 -8.789288 0.662392 93.433167 5.333952 -1.364670 -5.336693 -8.304346 -8.287186 2.327686 3.011693 7.423571 -10.539428 0.000000 -0.000000 0.000000 -6.639349 0.086401 -10.050069 7.996926 -3.077266 14.418455 3.032517 0.242095 -9.823943 0.000000 -0.000000 0.000000 -2.378676 2.429437 -8.541842 2.381791 -2.883752 11.103744 0.204171 1.432443 -5.249126 -2.029686 -6.553181 17.234461 14.832916 -9.884954 -29.756800 -1.110250 -12.041688 8.136277 -86.620165 -9.502597 16.983264 9.876600 -24.617107 0.934627 -13.231660 -9.146014 -0.327240 4.077599 17.412146 12.759431 78.193233 12.978382 12.032388 -4.080924 24.868083 21.136484 12.626631 9.581888 0.285069 
